# Blender v2.81 (sub 16) OBJ File: ''
# www.blender.org
mtllib xyz.mtl
o Cube.003
v 0.049115 0.049115 -0.049115
v -0.049115 0.049115 -0.049115
v -0.142385 -0.021758 -1.793594
v 0.142385 -0.021758 -1.793594
v 0.049115 -0.049115 0.049115
v 0.049115 -0.049115 -0.049115
v -0.049115 -0.049115 -0.049115
v -0.049115 -0.049115 0.049115
v -0.049115 0.049115 0.049115
v 0.049115 0.049115 0.049115
v 1.946599 -0.076088 0.123888
v 1.946599 -0.076088 -0.123888
v 0.142385 1.966887 -0.142385
v -0.142384 1.966887 -0.142385
v 1.946599 0.054584 -0.123888
v 2.117691 -0.186350 -0.123888
v 2.117691 0.164846 -0.123888
v 1.946599 0.054584 0.123888
v 2.279109 -0.076088 -0.123888
v 2.279109 0.054584 -0.123888
v 1.621141 -0.216546 0.123888
v 1.621141 -0.216546 -0.123888
v 2.279109 0.054584 0.123888
v 2.279109 -0.076088 0.123888
v 2.117691 -0.186350 0.123888
v 2.646190 -0.225550 0.123888
v 2.484772 -0.335813 0.123888
v 2.117691 0.164846 0.123888
v 2.540255 0.254068 0.123888
v 2.540255 0.254068 -0.123888
v 1.861290 0.275503 -0.123888
v 1.690197 0.165240 -0.123888
v 0.005051 2.206352 -0.142385
v -0.005049 2.206352 -0.142385
v 0.142385 1.966887 0.142384
v -0.142384 1.966887 0.142384
v -0.005049 2.206352 0.142384
v 0.005051 2.206352 0.142384
v 0.530240 2.507552 0.142384
v 0.667576 2.268087 0.142384
v -0.506095 2.493707 0.142384
v -0.506095 2.493707 -0.142385
v -0.142385 -0.306527 -1.793594
v -0.142385 -0.306527 -1.989686
v -0.142385 -0.021758 -1.989686
v 0.142385 -0.306527 -1.793594
v 0.142385 -0.021758 -1.989686
v -0.142384 0.404372 -2.370274
v 0.142385 0.404372 -2.370274
v 0.142385 -0.306527 -1.989686
v 0.142385 0.401060 -1.989686
v -0.142384 0.401060 -1.989686
v -0.142384 0.119603 -2.370274
v -0.142384 0.119603 -2.538026
v -0.142384 0.404372 -2.538026
v 0.142385 0.119603 -2.370274
v 0.142385 0.404372 -2.538026
v 0.142385 0.119603 -2.538026
v 0.142385 -0.286708 -2.370274
v -0.142385 -0.286708 -2.370274
v 0.142385 0.401060 -1.793594
v -0.142384 0.401060 -1.793594
v 0.142385 -0.286708 -2.538026
v -0.142385 -0.286708 -2.538026
v 0.667576 2.268087 -0.142385
v 0.530240 2.507552 -0.142385
v -0.643430 2.254242 0.142384
v -0.643430 2.254242 -0.142385
v 2.484772 -0.335813 -0.123888
v 2.646190 -0.225550 -0.123888
v 1.792235 -0.326808 0.123888
v 1.792235 -0.326808 -0.123888
v 1.690197 0.165240 0.123888
v 1.861290 0.275503 0.123888
v 2.378837 0.364331 0.123888
v 2.378837 0.364331 -0.123888
v -0.142384 1.483331 -0.142385
v 0.142385 1.483331 -0.142385
v 0.142385 1.483331 0.142384
v -0.142384 1.483331 0.142384
v -0.016989 1.419395 -0.016990
v 0.016990 1.419395 -0.016990
v 0.016990 1.419395 0.016989
v -0.016989 1.419395 0.016989
v 0.142385 -0.021758 -1.793594
v -0.142385 -0.021758 -1.793594
v -0.142385 -0.306527 -1.793594
v 0.142385 -0.306527 -1.793594
v 0.023377 0.023376 -1.706869
v -0.023377 0.023376 -1.706869
v -0.023377 -0.023377 -1.706869
v 0.023377 -0.023377 -1.706869
v 1.946599 -0.076088 -0.123888
v 1.946599 -0.076088 0.123888
v 1.946599 0.054584 0.123888
v 1.946599 0.054584 -0.123888
v 1.824282 -0.025279 -0.025278
v 1.824282 -0.025279 0.025278
v 1.824282 0.025278 0.025278
v 1.824282 0.025278 -0.025278
vt 0.625000 0.500000
vt 0.875000 0.500000
vt 0.875000 0.500000
vt 0.625000 0.500000
vt 0.375000 0.750000
vt 0.625000 0.750000
vt 0.625000 1.000000
vt 0.375000 1.000000
vt 0.375000 0.000000
vt 0.625000 0.000000
vt 0.625000 0.250000
vt 0.375000 0.250000
vt 0.125000 0.500000
vt 0.375000 0.500000
vt 0.125000 0.750000
vt 0.625000 0.750000
vt 0.375000 0.750000
vt 0.375000 0.750000
vt 0.625000 0.750000
vt 0.875000 0.500000
vt 0.625000 0.500000
vt 0.625000 0.500000
vt 0.875000 0.500000
vt 0.625000 0.500000
vt 0.625000 0.750000
vt 0.625000 0.500000
vt 0.375000 0.500000
vt 0.625000 0.500000
vt 0.375000 0.500000
vt 0.625000 0.750000
vt 0.625000 0.500000
vt 0.375000 0.750000
vt 0.625000 0.750000
vt 0.375000 0.500000
vt 0.375000 0.750000
vt 0.375000 0.750000
vt 0.375000 0.750000
vt 0.375000 0.750000
vt 0.375000 0.500000
vt 0.375000 0.500000
vt 0.625000 0.500000
vt 0.625000 0.500000
vt 0.625000 0.500000
vt 0.625000 0.500000
vt 0.875000 0.500000
vt 0.375000 0.500000
vt 0.375000 0.500000
vt 0.375000 0.250000
vt 0.625000 0.250000
vt 0.625000 0.250000
vt 0.375000 0.250000
vt 0.125000 0.500000
vt 0.125000 0.500000
vt 0.375000 0.250000
vt 0.625000 0.250000
vt 0.375000 0.500000
vt 0.375000 0.500000
vt 0.375000 0.500000
vt 0.375000 0.250000
vt 0.625000 0.250000
vt 0.125000 0.500000
vt 0.625000 0.250000
vt 0.625000 0.000000
vt 0.625000 0.000000
vt 0.625000 0.250000
vt 0.625000 1.000000
vt 0.625000 0.750000
vt 0.625000 0.750000
vt 0.625000 1.000000
vt 0.625000 0.250000
vt 0.625000 0.000000
vt 0.625000 0.500000
vt 0.875000 0.500000
vt 0.875000 0.500000
vt 0.625000 0.500000
vt 0.625000 0.750000
vt 0.625000 1.000000
vt 0.625000 0.500000
vt 0.875000 0.500000
vt 0.625000 0.250000
vt 0.625000 0.000000
vt 0.625000 0.000000
vt 0.625000 0.250000
vt 0.625000 0.750000
vt 0.625000 1.000000
vt 0.625000 0.500000
vt 0.875000 0.500000
vt 0.875000 0.750000
vt 0.625000 0.750000
vt 0.625000 0.750000
vt 0.625000 1.000000
vt 0.625000 0.500000
vt 0.875000 0.500000
vt 0.625000 0.250000
vt 0.625000 0.250000
vt 0.625000 0.750000
vt 0.625000 1.000000
vt 0.625000 0.000000
vt 0.625000 0.000000
vt 0.875000 0.750000
vt 0.625000 0.500000
vt 0.625000 0.500000
vt 0.375000 0.250000
vt 0.625000 0.250000
vt 0.125000 0.500000
vt 0.125000 0.500000
vt 0.875000 0.500000
vt 0.875000 0.500000
vt 0.625000 0.750000
vt 0.625000 0.750000
vt 0.375000 0.750000
vt 0.625000 0.750000
vt 0.375000 0.500000
vt 0.375000 0.500000
vt 0.375000 0.500000
vt 0.625000 0.500000
vt 0.375000 0.500000
vt 0.125000 0.500000
vt 0.375000 0.250000
vt 0.625000 0.250000
vt 0.625000 0.500000
vt 0.875000 0.500000
vt 0.875000 0.500000
vt 0.625000 0.500000
vt 0.625000 0.750000
vt 0.625000 0.500000
vt 0.625000 0.250000
vt 0.625000 0.000000
vt 0.625000 1.000000
vt 0.875000 0.500000
vt 0.625000 0.500000
vt 0.625000 0.750000
vt 0.375000 0.750000
vt 0.375000 0.500000
vn 0.0000 0.0000 1.0000
vn 0.0000 1.0000 -0.0000
vn 1.0000 -0.0000 0.0000
vn 0.0000 -0.0000 -1.0000
vn 0.0000 0.0000 0.0000
vn 0.3962 -0.9181 0.0000
vn -1.0000 0.0000 0.0000
vn -0.6070 0.7947 0.0000
vn 0.0000 -1.0000 0.0000
vn -0.4975 -0.8675 0.0000
vn -0.0000 -0.6661 -0.7458
vn 0.0000 0.6661 0.7458
vn -0.8675 -0.4975 0.0000
vn -0.4975 0.8675 0.0000
vn 0.4975 -0.8675 0.0000
vn 0.8675 -0.4975 0.0000
vn 0.4975 0.8675 0.0000
vn -0.5641 0.8257 0.0000
vn 0.3771 0.9262 0.0000
vn -0.3771 -0.9262 0.0000
vn 0.5417 0.8406 -0.0000
vn -0.3962 0.9181 0.0000
vn 0.5417 -0.8406 0.0000
vn -0.3962 -0.9181 0.0000
vn 0.3962 0.9181 -0.0000
vn -0.5641 -0.8257 0.0000
vn 0.6070 -0.7947 0.0000
vn 0.0000 0.8909 -0.4542
vn 0.4542 0.8909 0.0000
vn -0.4542 0.8909 0.0000
vn 0.0000 0.8909 0.4542
vn 0.0000 -0.0234 0.9997
vn -0.9997 -0.0234 0.0000
vn 0.9997 -0.0234 0.0000
vn 0.0000 -0.0234 -0.9997
vn -0.5889 0.0000 -0.8082
vn 0.5889 -0.0000 -0.8082
vn 0.0000 0.2929 -0.9562
vn -0.0000 -0.8871 0.4617
vn -0.0000 -0.9999 0.0155
vn 0.0000 0.9999 0.0155
vn 0.9999 -0.0000 0.0155
vn -0.9999 0.0000 0.0155
vn 0.6276 -0.0000 0.7785
vn 0.6276 -0.0000 -0.7785
vn 0.2330 -0.9725 0.0000
vn 0.3836 0.9235 -0.0000
vn -0.0134 0.9999 -0.0000
vn -0.0134 -0.9999 0.0000
vn -0.0134 -0.0000 -0.9999
vn -0.0134 0.0000 0.9999
usemtl xyz
s off
f 85/1/1 86/2/1 3/3/1 4/4/1
f 5/5/2 6/6/2 7/7/2 8/8/2
f 8/9/3 7/10/3 2/11/3 9/12/3
f 9/13/4 10/14/4 5/5/4 8/15/4
f 93/16/5 94/17/5 11/18/5 12/19/5
f 77/20/1 78/21/1 13/22/1 14/23/1
f 15/24/1 12/19/1 16/25/1 17/26/1
f 95/27/5 96/28/5 15/24/5 18/29/5
f 94/17/1 95/27/1 18/29/1 11/18/1
f 96/28/1 93/16/1 12/19/1 15/24/1
f 17/26/1 16/25/1 19/30/1 20/31/1
f 12/19/6 11/18/6 21/32/6 22/33/6
f 23/34/7 20/31/7 19/30/7 24/35/7
f 25/36/4 24/35/4 26/37/4 27/38/4
f 11/18/4 18/29/4 28/39/4 25/36/4
f 25/36/4 28/39/4 23/34/4 24/35/4
f 20/31/8 23/34/8 29/40/8 30/41/8
f 15/24/1 17/26/1 31/42/1 32/43/1
f 14/23/1 13/22/1 33/44/1 34/45/1
f 78/21/7 79/46/7 35/47/7 13/22/7
f 80/48/3 77/49/3 14/50/3 36/51/3
f 79/46/4 80/52/4 36/53/4 35/47/4
f 37/54/9 34/55/9 33/44/9 38/56/9
f 35/47/4 38/56/4 39/57/4 40/58/4
f 34/55/10 37/54/10 41/59/10 42/60/10
f 35/47/4 36/53/4 37/61/4 38/56/4
f 3/62/3 43/63/3 44/64/3 45/65/3
f 87/66/1 88/67/1 46/68/1 43/69/1
f 86/70/1 87/71/1 43/63/1 3/62/1
f 88/67/1 85/1/1 4/4/1 46/68/1
f 47/72/11 45/73/11 48/74/11 49/75/11
f 43/69/2 46/68/2 50/76/2 44/77/2
f 45/73/1 47/72/1 51/78/1 52/79/1
f 46/68/7 4/4/7 47/72/7 50/76/7
f 48/80/3 53/81/3 54/82/3 55/83/3
f 50/76/7 47/72/7 49/75/7 56/84/7
f 45/65/3 44/64/3 53/81/3 48/80/3
f 44/77/12 50/76/12 56/84/12 53/85/12
f 57/86/1 55/87/1 54/88/1 58/89/1
f 53/85/4 56/84/4 59/90/4 60/91/4
f 49/75/9 48/74/9 55/87/9 57/86/9
f 56/84/7 49/75/7 57/86/7 58/89/7
f 61/92/9 62/93/9 52/79/9 51/78/9
f 4/4/4 3/3/4 62/93/4 61/92/4
f 47/72/7 4/4/7 61/92/7 51/78/7
f 3/62/3 45/65/3 52/94/3 62/95/3
f 60/91/2 59/90/2 63/96/2 64/97/2
f 56/84/7 58/89/7 63/96/7 59/90/7
f 54/82/3 53/81/3 60/98/3 64/99/3
f 58/89/1 54/88/1 64/100/1 63/96/1
f 65/101/13 40/58/13 39/57/13 66/102/13
f 13/22/14 35/47/14 40/58/14 65/101/14
f 33/44/1 13/22/1 65/101/1 66/102/1
f 38/56/15 33/44/15 66/102/15 39/57/15
f 67/103/16 68/104/16 42/60/16 41/59/16
f 37/61/4 36/53/4 67/105/4 41/106/4
f 36/51/17 14/50/17 68/104/17 67/103/17
f 14/23/1 34/45/1 42/107/1 68/108/1
f 69/109/18 27/38/18 26/37/18 70/110/18
f 16/25/19 25/36/19 27/38/19 69/109/19
f 24/35/20 19/30/20 70/110/20 26/37/20
f 19/30/1 16/25/1 69/109/1 70/110/1
f 22/33/21 21/32/21 71/111/21 72/112/21
f 16/25/1 12/19/1 22/33/1 72/112/1
f 25/36/22 16/25/22 72/112/22 71/111/22
f 11/18/4 25/36/4 71/111/4 21/32/4
f 73/113/23 32/43/23 31/42/23 74/114/23
f 17/26/24 28/39/24 74/114/24 31/42/24
f 18/29/25 15/24/25 32/43/25 73/113/25
f 28/39/4 18/29/4 73/113/4 74/114/4
f 75/115/26 76/116/26 30/41/26 29/40/26
f 23/34/4 28/39/4 75/115/4 29/40/4
f 28/39/27 17/26/27 76/116/27 75/115/27
f 17/26/1 20/31/1 30/41/1 76/116/1
f 83/117/28 84/118/28 80/52/28 79/46/28
f 84/119/29 81/120/29 77/49/29 80/48/29
f 82/121/30 83/117/30 79/46/30 78/21/30
f 81/122/31 82/121/31 78/21/31 77/20/31
f 2/123/32 1/124/32 82/121/32 81/122/32
f 1/124/33 10/14/33 83/117/33 82/121/33
f 9/12/34 2/11/34 81/120/34 84/119/34
f 10/14/35 9/13/35 84/118/35 83/117/35
f 92/125/36 89/126/36 85/1/36 88/67/36
f 90/127/37 91/128/37 87/71/37 86/70/37
f 91/129/38 92/125/38 88/67/38 87/66/38
f 89/126/39 90/130/39 86/2/39 85/1/39
f 1/124/40 2/123/40 90/130/40 89/126/40
f 7/7/41 6/6/41 92/125/41 91/129/41
f 2/11/42 7/10/42 91/128/42 90/127/42
f 6/6/43 1/124/43 89/126/43 92/125/43
f 100/131/44 97/132/44 93/16/44 96/28/44
f 98/133/45 99/134/45 95/27/45 94/17/45
f 99/134/46 100/131/46 96/28/46 95/27/46
f 97/132/47 98/133/47 94/17/47 93/16/47
f 6/6/48 5/5/48 98/133/48 97/132/48
f 10/14/49 1/124/49 100/131/49 99/134/49
f 5/5/50 10/14/50 99/134/50 98/133/50
f 1/124/51 6/6/51 97/132/51 100/131/51
